<svg width="12" height="12" viewBox="0 0 12 12" fill="none" xmlns="http://www.w3.org/2000/svg">
<path fill-rule="evenodd" clip-rule="evenodd" d="M12 8.48237L8.48823 12H3.51763L0 8.48823V3.51763L3.51177 0H8.48237L12 3.51177V8.48237Z" fill="#121111"/>
<path d="M1.41016 2.11035H4.66211V2.37891C4.35612 2.38542 4.11849 2.42611 3.94922 2.50098C3.7832 2.57259 3.69368 2.71908 3.68066 2.94043C3.67415 3.07715 3.66764 3.1862 3.66113 3.26758C3.65462 3.3457 3.65137 3.37988 3.65137 3.37012V7.87207C3.65137 8.06413 3.6709 8.21712 3.70996 8.33105C3.75228 8.44499 3.81087 8.52637 3.88574 8.5752C3.96061 8.62402 4.04688 8.6582 4.14453 8.67773C4.24219 8.69401 4.41471 8.71191 4.66211 8.73145V9H1.41016V8.73145C1.69987 8.72819 1.91797 8.69889 2.06445 8.64355C2.21419 8.58496 2.31022 8.49382 2.35254 8.37012C2.39811 8.24316 2.4209 8.04297 2.4209 7.76953V3.40918C2.4209 3.14876 2.40788 2.95671 2.38184 2.83301C2.35905 2.70605 2.31348 2.61491 2.24512 2.55957C2.17676 2.50423 2.08398 2.4668 1.9668 2.44727C1.85286 2.42448 1.66732 2.40169 1.41016 2.37891V2.11035ZM2.58203 3.26758V8.13086C2.58203 8.29688 2.55273 8.41895 2.49414 8.49707C2.43555 8.5752 2.33464 8.65332 2.19141 8.73145C2.40299 8.72493 2.57389 8.69076 2.7041 8.62891C2.83431 8.5638 2.89941 8.42383 2.89941 8.20898V3.02832C2.89941 2.80697 2.85384 2.64095 2.7627 2.53027C2.67155 2.4196 2.49089 2.36914 2.2207 2.37891C2.4681 2.50911 2.5918 2.75651 2.5918 3.12109C2.5918 3.14714 2.59017 3.17155 2.58691 3.19434C2.58691 3.21712 2.58529 3.24154 2.58203 3.26758ZM5.70215 6.51953H6.02441C6.20345 7.03385 6.41829 7.4668 6.66895 7.81836C6.92285 8.16667 7.19792 8.42546 7.49414 8.59473C7.79362 8.764 8.10612 8.84863 8.43164 8.84863C8.83854 8.84863 9.18685 8.72168 9.47656 8.46777C9.76628 8.21387 9.91113 7.88835 9.91113 7.49121C9.91113 7.12012 9.8151 6.83203 9.62305 6.62695C9.43099 6.41862 9.2015 6.27376 8.93457 6.19238C8.66764 6.10775 8.31608 6.02962 7.87988 5.95801C7.44368 5.88639 7.13444 5.81966 6.95215 5.75781C6.66895 5.66016 6.42806 5.52669 6.22949 5.35742C6.03092 5.1849 5.87956 4.97982 5.77539 4.74219C5.67448 4.5013 5.62402 4.24414 5.62402 3.9707C5.62402 3.71029 5.6696 3.45964 5.76074 3.21875C5.85189 2.97786 5.98047 2.76465 6.14648 2.5791C6.3125 2.39355 6.51432 2.24707 6.75195 2.13965C6.99284 2.03223 7.25977 1.97852 7.55273 1.97852C7.76432 1.97852 8.02311 2.00944 8.3291 2.07129C8.63835 2.12988 8.86296 2.15918 9.00293 2.15918C9.17871 2.15918 9.34473 2.12012 9.50098 2.04199H9.87207L10.082 4.04883H9.74023C9.42122 3.44987 9.08594 2.99414 8.73438 2.68164C8.38607 2.36589 7.97591 2.20801 7.50391 2.20801C7.26953 2.20801 7.05143 2.26335 6.84961 2.37402C6.64779 2.48145 6.48503 2.63118 6.36133 2.82324C6.24089 3.0153 6.18066 3.22689 6.18066 3.45801C6.18066 3.78353 6.29134 4.03255 6.5127 4.20508C6.73405 4.3776 7.0612 4.50781 7.49414 4.5957C7.93034 4.68359 8.31934 4.75846 8.66113 4.82031C9.00618 4.88216 9.27962 4.96191 9.48145 5.05957C9.85254 5.24186 10.1406 5.49414 10.3457 5.81641C10.5508 6.13867 10.6533 6.50326 10.6533 6.91016C10.6533 7.30078 10.5589 7.66536 10.3701 8.00391C10.1813 8.34245 9.91602 8.61426 9.57422 8.81934C9.23242 9.02116 8.85156 9.12207 8.43164 9.12207C8.19401 9.12207 8.01497 9.10417 7.89453 9.06836C7.77409 9.03255 7.56738 8.96257 7.27441 8.8584C6.98145 8.75423 6.75684 8.70215 6.60059 8.70215C6.34017 8.70215 6.13346 8.80143 5.98047 9H5.70215V6.51953ZM9.54492 3.36035L9.38379 2.42773C9.27637 2.46354 9.16895 2.48145 9.06152 2.48145C8.94434 2.48145 8.81738 2.46354 8.68066 2.42773C8.81087 2.51237 8.9248 2.60677 9.02246 2.71094C9.12012 2.8151 9.22266 2.94043 9.33008 3.08691C9.4375 3.2334 9.50911 3.32454 9.54492 3.36035ZM5.86328 7.42773V8.73145C5.95768 8.60775 6.04395 8.52799 6.12207 8.49219C6.20345 8.45638 6.32715 8.44173 6.49316 8.44824C6.38574 8.32129 6.30762 8.22852 6.25879 8.16992C6.21322 8.10807 6.15462 8.01855 6.08301 7.90137C6.01465 7.78092 5.94141 7.62305 5.86328 7.42773ZM5.86328 3.39941C5.80794 3.64681 5.78027 3.84701 5.78027 4C5.78027 4.17253 5.80957 4.34668 5.86816 4.52246C5.92676 4.69499 6.01302 4.85938 6.12695 5.01562C6.24089 5.16862 6.36947 5.29395 6.5127 5.3916C6.70475 5.52181 6.91634 5.61458 7.14746 5.66992C7.37858 5.72201 7.71549 5.78548 8.1582 5.86035C8.60417 5.93197 8.91178 6.00195 9.08105 6.07031C9.39355 6.18424 9.63607 6.3584 9.80859 6.59277C9.98438 6.82715 10.0723 7.10221 10.0723 7.41797C10.0723 7.65234 10.0055 7.89974 9.87207 8.16016C10.139 7.88346 10.2725 7.55957 10.2725 7.18848C10.2725 6.80436 10.1732 6.50326 9.97461 6.28516C9.7793 6.0638 9.53516 5.90104 9.24219 5.79688C8.95247 5.68945 8.55534 5.5918 8.05078 5.50391C7.54622 5.41276 7.28743 5.36556 7.27441 5.3623C6.81217 5.24186 6.46061 5.03353 6.21973 4.7373C5.9821 4.44108 5.86328 4.09928 5.86328 3.71191C5.86328 3.6403 5.86165 3.58008 5.8584 3.53125C5.8584 3.48242 5.86003 3.43848 5.86328 3.39941Z" fill="#FFD700"/>
</svg>
